<svg viewBox="0 0" width="202" height="36" fill="none" xmlns="http://www.w3.org/2000/svg">
  <path fill-rule="evenodd" clip-rule="evenodd" d="M58.859 18c0-5.889 2.954-10.6 8.281-10.6 5.328 0 8.281 4.711 8.281 10.6 0 5.89-2.954 10.6-8.28 10.6-5.328 0-8.282-4.71-8.282-10.6Zm8.281 7.66c2.072 0 2.954-3.534 2.954-7.652 0-4.12-.889-7.652-2.954-7.652-2.065 0-2.954 3.533-2.954 7.652-.007 4.118.882 7.652 2.954 7.652ZM3.843 7.7v5.596h.294L7.98 7.7h5.32l-7.098 6.474.294.293L19.51 7.693v4.711L7.973 16.523v.292l11.537-1.028v4.419L7.973 19.178v.293l11.537 4.118v4.712L6.496 21.526l-.294.293 7.098 6.474H7.98l-3.843-5.596h-.294v5.596H0V7.686h3.843V7.7Zm19.23 0H28.1l-.294 12.363h.294L34.015 7.7h4.438v20.608h-5.026l.294-12.364h-.294L27.51 28.309h-4.438V7.7Zm23.955 0h-5.026v20.608h5.026v-9.13h4.137v9.13h5.026V7.7h-5.026v7.952h-4.137V7 " fill="#fff"/>
  <style>
      .orange {font: bold 29px sans-serif; fill: #f60;}
  </style>
 <text x="78" y="28" class="orange">ВМЕСТЕ</text>
</svg>
